<?xml version="1.0" encoding="UTF-8"?>
<svg id="Layer_2" data-name="Layer 2" xmlns="http://www.w3.org/2000/svg" viewBox="0 0 2000 2000">
  <defs>
    <style>
      .cls-1 {
        fill: #00b5d3;
      }
    </style>
  </defs>
  <g id="Layer_1-2" data-name="Layer 1">
    <g>
      <path class="cls-1" d="m533.72,1920.25v-79.75h-147.23c-125.21,0-226.98-101.77-226.98-226.98v-147.23h-79.75c-29.03,0-56.23-7.82-79.75-21.45v168.68c0,213.1,173.39,386.49,386.49,386.49h168.68c-13.64-23.53-21.45-50.72-21.45-79.75Z"/>
      <path class="cls-1" d="m533.72,1920.25v-79.75h-147.23c-125.21,0-226.98-101.77-226.98-226.98v-147.23h-79.75c-29.03,0-56.23-7.82-79.75-21.45v168.68c0,213.1,173.39,386.49,386.49,386.49h168.68c-13.64-23.53-21.45-50.72-21.45-79.75Z"/>
      <path class="cls-1" d="m999.96,0H386.49C173.39,0,0,173.39,0,386.57v920.21c0,44.02,35.65,79.75,79.75,79.75h533.72s0,533.72,0,533.72c0,44.1,35.73,79.75,79.75,79.75h306.74c551.42,0,1000.04-448.54,1000.04-999.96S1551.38,0,999.96,0Zm0,1840.49h-226.98s0-533.72,0-533.72c0-44.02-35.73-79.75-79.75-79.75H159.51s0-840.45,0-840.45c0-125.21,101.77-227.06,226.98-227.06h613.47c463.45,0,840.53,377.08,840.53,840.53,0,463.45-377.08,840.45-840.53,840.45Z"/>
      <path class="cls-1" d="m999.96,613.55h-306.74c-44.02,0-79.75,35.65-79.75,79.75v453.96h79.75c29.03,0,56.23,7.82,79.75,21.45v-395.66s226.98,0,226.98,0c125.14,0,226.98,101.85,226.98,226.98,0,125.13-101.85,226.98-226.98,226.98h-168.68c13.64,23.53,21.45,50.72,21.45,79.75v79.75h147.23c213.1,0,386.49-173.39,386.49-386.49,0-213.1-173.39-386.49-386.49-386.49Z"/>
      <path class="cls-1" d="m999.96,613.55h-306.74c-44.02,0-79.75,35.65-79.75,79.75v453.96h79.75c29.03,0,56.23,7.82,79.75,21.45v-395.66s226.98,0,226.98,0c125.14,0,226.98,101.85,226.98,226.98,0,125.13-101.85,226.98-226.98,226.98h-168.68c13.64,23.53,21.45,50.72,21.45,79.75v79.75h147.23c213.1,0,386.49-173.39,386.49-386.49,0-213.1-173.39-386.49-386.49-386.49Z"/>
    </g>
  </g>
</svg>